<mxfile host="app.diagrams.net" modified="2022-10-10T14:03:04.608Z" agent="5.0 (Windows NT 10.0; Win64; x64) AppleWebKit/537.36 (KHTML, like Gecko) Chrome/104.0.5112.122 Whale/3.16.138.27 Safari/537.36" etag="L5mjiSPQcLVQ-UYu4A98" version="20.4.0" type="github">
  <diagram id="LUx5Q-E27hHc2LMolcEZ" name="페이지-1">
    <mxGraphModel dx="874" dy="624" grid="1" gridSize="10" guides="1" tooltips="1" connect="1" arrows="1" fold="1" page="1" pageScale="1" pageWidth="827" pageHeight="1169" math="0" shadow="0">
      <root>
        <mxCell id="0" />
        <mxCell id="1" parent="0" />
        <mxCell id="EpxUHzpcKmTcJIoI_K-g-6" value="이용자&lt;br&gt;" style="shape=umlActor;verticalLabelPosition=bottom;verticalAlign=top;html=1;" vertex="1" parent="1">
          <mxGeometry x="250" y="200" width="30" height="60" as="geometry" />
        </mxCell>
        <mxCell id="EpxUHzpcKmTcJIoI_K-g-9" value="게시판 서비스&lt;br&gt;" style="shape=umlFrame;whiteSpace=wrap;html=1;labelBackgroundColor=#ffffff;width=120;height=30;" vertex="1" parent="1">
          <mxGeometry x="330" y="40" width="570" height="530" as="geometry" />
        </mxCell>
        <mxCell id="EpxUHzpcKmTcJIoI_K-g-26" style="rounded=0;orthogonalLoop=1;jettySize=auto;html=1;exitX=0;exitY=0.5;exitDx=0;exitDy=0;entryX=1;entryY=0.3333333333333333;entryDx=0;entryDy=0;entryPerimeter=0;endArrow=none;endFill=0;" edge="1" parent="1" source="EpxUHzpcKmTcJIoI_K-g-10" target="EpxUHzpcKmTcJIoI_K-g-6">
          <mxGeometry relative="1" as="geometry" />
        </mxCell>
        <mxCell id="EpxUHzpcKmTcJIoI_K-g-10" value="회원가입" style="rounded=1;whiteSpace=wrap;html=1;arcSize=40;fontColor=#000000;fillColor=#ffffc0;strokeColor=#ff0000;labelBackgroundColor=#ffffff;" vertex="1" parent="1">
          <mxGeometry x="360" y="200" width="120" height="40" as="geometry" />
        </mxCell>
        <mxCell id="EpxUHzpcKmTcJIoI_K-g-28" style="edgeStyle=none;rounded=0;orthogonalLoop=1;jettySize=auto;html=1;exitX=0;exitY=0.5;exitDx=0;exitDy=0;entryX=1;entryY=0.3333333333333333;entryDx=0;entryDy=0;entryPerimeter=0;endArrow=none;endFill=0;" edge="1" parent="1" source="EpxUHzpcKmTcJIoI_K-g-12" target="EpxUHzpcKmTcJIoI_K-g-6">
          <mxGeometry relative="1" as="geometry" />
        </mxCell>
        <mxCell id="EpxUHzpcKmTcJIoI_K-g-36" style="edgeStyle=none;rounded=0;orthogonalLoop=1;jettySize=auto;html=1;exitX=1;exitY=0.25;exitDx=0;exitDy=0;entryX=0.5;entryY=1;entryDx=0;entryDy=0;dashed=1;endArrow=classic;endFill=1;" edge="1" parent="1" source="EpxUHzpcKmTcJIoI_K-g-12" target="EpxUHzpcKmTcJIoI_K-g-14">
          <mxGeometry relative="1" as="geometry" />
        </mxCell>
        <mxCell id="EpxUHzpcKmTcJIoI_K-g-52" style="edgeStyle=none;rounded=0;orthogonalLoop=1;jettySize=auto;html=1;exitX=1;exitY=0.5;exitDx=0;exitDy=0;entryX=0;entryY=0.5;entryDx=0;entryDy=0;endArrow=none;endFill=0;" edge="1" parent="1" source="EpxUHzpcKmTcJIoI_K-g-12" target="EpxUHzpcKmTcJIoI_K-g-49">
          <mxGeometry relative="1" as="geometry" />
        </mxCell>
        <mxCell id="EpxUHzpcKmTcJIoI_K-g-12" value="게시판 보기" style="rounded=1;whiteSpace=wrap;html=1;arcSize=40;fontColor=#000000;fillColor=#ffffc0;strokeColor=#ff0000;labelBackgroundColor=#ffffff;" vertex="1" parent="1">
          <mxGeometry x="360" y="280" width="120" height="40" as="geometry" />
        </mxCell>
        <mxCell id="EpxUHzpcKmTcJIoI_K-g-29" style="edgeStyle=none;rounded=0;orthogonalLoop=1;jettySize=auto;html=1;exitX=0;exitY=0.5;exitDx=0;exitDy=0;endArrow=none;endFill=0;" edge="1" parent="1" source="EpxUHzpcKmTcJIoI_K-g-13">
          <mxGeometry relative="1" as="geometry">
            <mxPoint x="280" y="220" as="targetPoint" />
          </mxGeometry>
        </mxCell>
        <mxCell id="EpxUHzpcKmTcJIoI_K-g-38" style="edgeStyle=none;rounded=0;orthogonalLoop=1;jettySize=auto;html=1;exitX=1;exitY=0.25;exitDx=0;exitDy=0;dashed=1;endArrow=classic;endFill=1;entryX=0.5;entryY=1;entryDx=0;entryDy=0;" edge="1" parent="1" source="EpxUHzpcKmTcJIoI_K-g-13" target="EpxUHzpcKmTcJIoI_K-g-14">
          <mxGeometry relative="1" as="geometry">
            <mxPoint x="540" y="130" as="targetPoint" />
          </mxGeometry>
        </mxCell>
        <mxCell id="EpxUHzpcKmTcJIoI_K-g-53" style="edgeStyle=none;rounded=0;orthogonalLoop=1;jettySize=auto;html=1;exitX=1;exitY=0.5;exitDx=0;exitDy=0;endArrow=none;endFill=0;entryX=0;entryY=0.5;entryDx=0;entryDy=0;" edge="1" parent="1" source="EpxUHzpcKmTcJIoI_K-g-13" target="EpxUHzpcKmTcJIoI_K-g-49">
          <mxGeometry relative="1" as="geometry">
            <mxPoint x="950" y="200" as="targetPoint" />
          </mxGeometry>
        </mxCell>
        <mxCell id="EpxUHzpcKmTcJIoI_K-g-13" value="게시글 보기" style="rounded=1;whiteSpace=wrap;html=1;arcSize=40;fontColor=#000000;fillColor=#ffffc0;strokeColor=#ff0000;labelBackgroundColor=#ffffff;" vertex="1" parent="1">
          <mxGeometry x="360" y="400" width="120" height="40" as="geometry" />
        </mxCell>
        <mxCell id="EpxUHzpcKmTcJIoI_K-g-27" style="edgeStyle=none;rounded=0;orthogonalLoop=1;jettySize=auto;html=1;exitX=0;exitY=0.5;exitDx=0;exitDy=0;endArrow=none;endFill=0;" edge="1" parent="1" source="EpxUHzpcKmTcJIoI_K-g-14" target="EpxUHzpcKmTcJIoI_K-g-6">
          <mxGeometry relative="1" as="geometry" />
        </mxCell>
        <mxCell id="EpxUHzpcKmTcJIoI_K-g-33" style="edgeStyle=none;rounded=0;orthogonalLoop=1;jettySize=auto;html=1;exitX=1;exitY=0.5;exitDx=0;exitDy=0;dashed=1;endArrow=classic;endFill=1;" edge="1" parent="1" source="EpxUHzpcKmTcJIoI_K-g-14" target="EpxUHzpcKmTcJIoI_K-g-15">
          <mxGeometry relative="1" as="geometry" />
        </mxCell>
        <mxCell id="EpxUHzpcKmTcJIoI_K-g-34" value="&amp;lt;&amp;lt;include&amp;gt;&amp;gt;" style="edgeLabel;html=1;align=center;verticalAlign=middle;resizable=0;points=[];" vertex="1" connectable="0" parent="EpxUHzpcKmTcJIoI_K-g-33">
          <mxGeometry x="0.275" relative="1" as="geometry">
            <mxPoint x="-22" as="offset" />
          </mxGeometry>
        </mxCell>
        <mxCell id="EpxUHzpcKmTcJIoI_K-g-14" value="로그인" style="rounded=1;whiteSpace=wrap;html=1;arcSize=40;fontColor=#000000;fillColor=#ffffc0;strokeColor=#ff0000;labelBackgroundColor=#ffffff;" vertex="1" parent="1">
          <mxGeometry x="480" y="80" width="120" height="40" as="geometry" />
        </mxCell>
        <mxCell id="EpxUHzpcKmTcJIoI_K-g-51" style="edgeStyle=none;rounded=0;orthogonalLoop=1;jettySize=auto;html=1;exitX=1;exitY=0.5;exitDx=0;exitDy=0;entryX=0;entryY=0.5;entryDx=0;entryDy=0;endArrow=none;endFill=0;" edge="1" parent="1" source="EpxUHzpcKmTcJIoI_K-g-15" target="EpxUHzpcKmTcJIoI_K-g-49">
          <mxGeometry relative="1" as="geometry" />
        </mxCell>
        <mxCell id="EpxUHzpcKmTcJIoI_K-g-15" value="인증" style="rounded=1;whiteSpace=wrap;html=1;arcSize=40;fontColor=#000000;fillColor=#ffffc0;strokeColor=#ff0000;labelBackgroundColor=#ffffff;" vertex="1" parent="1">
          <mxGeometry x="760" y="80" width="120" height="40" as="geometry" />
        </mxCell>
        <mxCell id="EpxUHzpcKmTcJIoI_K-g-31" style="edgeStyle=none;rounded=0;orthogonalLoop=1;jettySize=auto;html=1;exitX=0;exitY=0.5;exitDx=0;exitDy=0;endArrow=classic;endFill=1;dashed=1;" edge="1" parent="1" source="EpxUHzpcKmTcJIoI_K-g-16">
          <mxGeometry relative="1" as="geometry">
            <mxPoint x="600" y="100" as="targetPoint" />
          </mxGeometry>
        </mxCell>
        <mxCell id="EpxUHzpcKmTcJIoI_K-g-35" value="&amp;lt;&amp;lt;extend&amp;gt;&amp;gt;" style="edgeLabel;html=1;align=center;verticalAlign=middle;resizable=0;points=[];" vertex="1" connectable="0" parent="EpxUHzpcKmTcJIoI_K-g-31">
          <mxGeometry x="-0.1958" y="4" relative="1" as="geometry">
            <mxPoint x="-18" y="-12" as="offset" />
          </mxGeometry>
        </mxCell>
        <mxCell id="EpxUHzpcKmTcJIoI_K-g-16" value="로그인 실패" style="rounded=1;whiteSpace=wrap;html=1;arcSize=40;fontColor=#000000;fillColor=#ffffc0;strokeColor=#ff0000;labelBackgroundColor=#ffffff;" vertex="1" parent="1">
          <mxGeometry x="750" y="160" width="120" height="40" as="geometry" />
        </mxCell>
        <mxCell id="EpxUHzpcKmTcJIoI_K-g-41" style="edgeStyle=none;rounded=0;orthogonalLoop=1;jettySize=auto;html=1;exitX=0;exitY=0.5;exitDx=0;exitDy=0;entryX=1;entryY=0.5;entryDx=0;entryDy=0;dashed=1;endArrow=classic;endFill=1;" edge="1" parent="1" source="EpxUHzpcKmTcJIoI_K-g-17" target="EpxUHzpcKmTcJIoI_K-g-12">
          <mxGeometry relative="1" as="geometry" />
        </mxCell>
        <mxCell id="EpxUHzpcKmTcJIoI_K-g-17" value="게시판 정렬" style="rounded=1;whiteSpace=wrap;html=1;arcSize=40;fontColor=#000000;fillColor=#ffffc0;strokeColor=#ff0000;labelBackgroundColor=#ffffff;" vertex="1" parent="1">
          <mxGeometry x="560" y="210" width="120" height="40" as="geometry" />
        </mxCell>
        <mxCell id="EpxUHzpcKmTcJIoI_K-g-43" style="edgeStyle=none;rounded=0;orthogonalLoop=1;jettySize=auto;html=1;exitX=0;exitY=0.5;exitDx=0;exitDy=0;entryX=1;entryY=0.5;entryDx=0;entryDy=0;dashed=1;endArrow=classic;endFill=1;" edge="1" parent="1" source="EpxUHzpcKmTcJIoI_K-g-18" target="EpxUHzpcKmTcJIoI_K-g-12">
          <mxGeometry relative="1" as="geometry" />
        </mxCell>
        <mxCell id="EpxUHzpcKmTcJIoI_K-g-18" value="게시판 검색" style="rounded=1;whiteSpace=wrap;html=1;arcSize=40;fontColor=#000000;fillColor=#ffffc0;strokeColor=#ff0000;labelBackgroundColor=#ffffff;" vertex="1" parent="1">
          <mxGeometry x="560" y="290" width="120" height="40" as="geometry" />
        </mxCell>
        <mxCell id="EpxUHzpcKmTcJIoI_K-g-47" style="edgeStyle=none;rounded=0;orthogonalLoop=1;jettySize=auto;html=1;exitX=0;exitY=0.5;exitDx=0;exitDy=0;entryX=1;entryY=0.5;entryDx=0;entryDy=0;dashed=1;endArrow=classic;endFill=1;" edge="1" parent="1" source="EpxUHzpcKmTcJIoI_K-g-19" target="EpxUHzpcKmTcJIoI_K-g-13">
          <mxGeometry relative="1" as="geometry" />
        </mxCell>
        <mxCell id="EpxUHzpcKmTcJIoI_K-g-54" style="edgeStyle=none;rounded=0;orthogonalLoop=1;jettySize=auto;html=1;exitX=1;exitY=0.5;exitDx=0;exitDy=0;entryX=0;entryY=0.5;entryDx=0;entryDy=0;endArrow=none;endFill=0;" edge="1" parent="1" source="EpxUHzpcKmTcJIoI_K-g-19" target="EpxUHzpcKmTcJIoI_K-g-49">
          <mxGeometry relative="1" as="geometry" />
        </mxCell>
        <mxCell id="EpxUHzpcKmTcJIoI_K-g-19" value="게시글 쓰기,수정,삭제" style="rounded=1;whiteSpace=wrap;html=1;arcSize=40;fontColor=#000000;fillColor=#ffffc0;strokeColor=#ff0000;labelBackgroundColor=#ffffff;" vertex="1" parent="1">
          <mxGeometry x="560" y="400" width="140" height="40" as="geometry" />
        </mxCell>
        <mxCell id="EpxUHzpcKmTcJIoI_K-g-48" style="edgeStyle=none;rounded=0;orthogonalLoop=1;jettySize=auto;html=1;exitX=0;exitY=0.5;exitDx=0;exitDy=0;entryX=1;entryY=0.5;entryDx=0;entryDy=0;dashed=1;endArrow=classic;endFill=1;" edge="1" parent="1" source="EpxUHzpcKmTcJIoI_K-g-20" target="EpxUHzpcKmTcJIoI_K-g-13">
          <mxGeometry relative="1" as="geometry" />
        </mxCell>
        <mxCell id="EpxUHzpcKmTcJIoI_K-g-56" style="edgeStyle=none;rounded=0;orthogonalLoop=1;jettySize=auto;html=1;exitX=1;exitY=0.5;exitDx=0;exitDy=0;entryX=0;entryY=0.5;entryDx=0;entryDy=0;endArrow=none;endFill=0;" edge="1" parent="1" source="EpxUHzpcKmTcJIoI_K-g-20" target="EpxUHzpcKmTcJIoI_K-g-49">
          <mxGeometry relative="1" as="geometry" />
        </mxCell>
        <mxCell id="EpxUHzpcKmTcJIoI_K-g-20" value="댓글 보기,쓰기,수정,삭제" style="rounded=1;whiteSpace=wrap;html=1;arcSize=40;fontColor=#000000;fillColor=#ffffc0;strokeColor=#ff0000;labelBackgroundColor=#ffffff;" vertex="1" parent="1">
          <mxGeometry x="560" y="480" width="150" height="40" as="geometry" />
        </mxCell>
        <mxCell id="EpxUHzpcKmTcJIoI_K-g-40" style="edgeStyle=none;rounded=0;orthogonalLoop=1;jettySize=auto;html=1;exitX=0.5;exitY=1;exitDx=0;exitDy=0;dashed=1;endArrow=classic;endFill=1;" edge="1" parent="1" source="EpxUHzpcKmTcJIoI_K-g-17" target="EpxUHzpcKmTcJIoI_K-g-17">
          <mxGeometry relative="1" as="geometry" />
        </mxCell>
        <mxCell id="EpxUHzpcKmTcJIoI_K-g-44" style="edgeStyle=none;rounded=0;orthogonalLoop=1;jettySize=auto;html=1;exitX=0.5;exitY=1;exitDx=0;exitDy=0;dashed=1;endArrow=classic;endFill=1;" edge="1" parent="1" source="EpxUHzpcKmTcJIoI_K-g-19" target="EpxUHzpcKmTcJIoI_K-g-19">
          <mxGeometry relative="1" as="geometry" />
        </mxCell>
        <mxCell id="EpxUHzpcKmTcJIoI_K-g-49" value="DB" style="html=1;dropTarget=0;labelBackgroundColor=#ffffff;" vertex="1" parent="1">
          <mxGeometry x="950" y="180" width="80" height="80" as="geometry" />
        </mxCell>
      </root>
    </mxGraphModel>
  </diagram>
</mxfile>
